<svg xmlns="http://www.w3.org/2000/svg" width="64" height="64" viewport="0 0 64 64"><path d="M16.168 2.924L4.51 13.061a.25.25 0 00.164.439h5.45a.75.75 0 01.692 1.041l-2.56 6.066 11.216-9.668a.251.251 0 00-.021-.395.25.25 0 00-.143-.044H14a.75.75 0 01-.687-1.05l2.855-6.526zm-.452-1.595a1.34 1.34 0 012.109 1.55L15.147 9h4.161c1.623 0 2.372 2.016 1.143 3.075L8.101 22.721a1.15 1.15 0 01-1.81-1.317L8.997 15H4.674c-1.62 0-2.37-2.008-1.148-3.07l12.19-10.6v-.001z" cliprule="evenodd" fillrule="evenodd"/></svg>